<?xml version="1.0" standalone="no"?>
<!DOCTYPE svg PUBLIC "-//W3C//DTD SVG 20010904//EN"
 "http://www.w3.org/TR/2001/REC-SVG-20010904/DTD/svg10.dtd">
<svg version="1.0" xmlns="http://www.w3.org/2000/svg"
 width="512.000000pt" height="512.000000pt" viewBox="0 0 512.000000 512.000000"
 preserveAspectRatio="xMidYMid meet">

<g transform="translate(0.000000,512.000000) scale(0.100000,-0.100000)"
fill="#000000" stroke="none">
<path d="M2468 4674 c-189 -45 -356 -214 -398 -399 -15 -66 -15 -187 1 -250
50 -208 230 -374 443 -407 272 -42 540 138 606 407 6 28 12 89 11 137 -1 339
-330 593 -663 512z m284 -166 c67 -31 147 -102 183 -164 14 -24 33 -76 42
-115 13 -61 14 -82 4 -137 -24 -132 -110 -245 -229 -300 -50 -24 -70 -27 -157
-27 -88 0 -107 3 -158 27 -162 76 -259 255 -227 424 28 146 131 264 273 310
68 22 200 13 269 -18z"/>
<path d="M2573 4411 c-3 -12 -17 -21 -39 -25 -39 -8 -93 -58 -96 -89 -5 -79
17 -116 90 -149 l42 -19 0 -59 c0 -68 -5 -71 -64 -39 -47 25 -80 22 -84 -8 -4
-27 56 -71 110 -79 33 -6 37 -10 40 -38 2 -26 7 -31 28 -31 19 0 26 6 30 28 4
23 13 32 44 42 54 19 86 54 93 102 8 60 -17 100 -83 130 l-54 24 0 61 c0 53 2
59 18 53 57 -24 71 -28 86 -22 43 17 -4 80 -69 93 -21 4 -35 13 -38 25 -3 11
-14 19 -27 19 -13 0 -24 -8 -27 -19z m-3 -142 c0 -42 -3 -50 -17 -47 -10 2
-24 15 -32 30 -14 24 -14 28 3 47 32 36 46 27 46 -30z m112 -183 c15 -21 8
-55 -14 -70 -12 -9 -26 -16 -30 -16 -5 0 -8 27 -8 60 0 60 0 61 23 49 12 -7
25 -17 29 -23z"/>
<path d="M1528 3978 c-14 -5 -30 -17 -35 -26 -4 -9 -10 -133 -13 -276 l-5
-258 -60 -23 c-304 -114 -564 -351 -701 -638 l-36 -77 -142 0 c-159 0 -201
-12 -249 -69 -45 -55 -48 -82 -45 -432 l3 -326 29 -41 c18 -26 47 -51 79 -67
47 -23 61 -25 189 -25 l138 0 26 -57 c86 -195 273 -411 456 -526 l67 -42 3
-313 3 -314 24 -19 c22 -18 43 -19 330 -19 249 0 311 3 327 14 18 13 19 31 24
248 l5 233 428 3 427 2 0 -228 c0 -226 0 -229 23 -250 23 -22 29 -22 333 -22
l311 0 21 23 c22 23 22 29 22 329 l0 306 88 59 c105 70 258 221 329 323 120
176 202 393 221 586 l7 69 240 5 240 5 58 29 c68 35 130 98 160 164 21 44 22
64 25 337 3 283 3 291 -18 310 -26 23 -74 24 -100 0 -18 -16 -20 -31 -20 -122
0 -58 -3 -103 -7 -101 -48 25 -96 41 -143 50 -142 25 -308 -72 -361 -209 -32
-82 -27 -199 11 -274 l20 -39 -55 0 -55 0 0 39 c0 62 -28 195 -62 289 -69 196
-157 333 -312 487 -198 197 -398 303 -677 361 -70 15 -161 18 -538 23 l-454 6
-14 65 c-37 184 -190 353 -370 408 -82 25 -158 33 -195 20z m212 -185 c125
-61 207 -188 219 -338 5 -61 11 -90 24 -102 16 -17 59 -18 535 -24 477 -5 524
-7 602 -26 222 -55 408 -160 570 -325 335 -340 414 -852 199 -1282 -96 -193
-240 -347 -436 -467 -51 -31 -76 -53 -83 -73 -6 -17 -10 -143 -10 -302 l0
-274 -204 0 -205 0 -3 224 c-3 204 -5 226 -22 245 -19 21 -23 21 -553 21 -520
0 -533 0 -553 -20 -19 -19 -20 -33 -20 -245 l0 -225 -210 0 -210 0 0 289 c0
333 9 301 -110 374 -197 120 -352 299 -445 512 -18 43 -41 85 -50 94 -13 13
-48 17 -193 21 -176 5 -176 5 -189 30 -9 18 -13 100 -13 308 l0 283 25 24 c24
24 28 25 184 25 88 0 166 3 175 6 9 3 42 61 74 128 33 66 86 157 119 201 143
192 352 339 573 405 43 13 75 29 85 43 12 18 15 62 15 265 l0 244 28 -6 c15
-4 52 -19 82 -33z m2911 -1167 c52 -35 79 -90 79 -161 0 -62 -14 -97 -57 -137
-37 -35 -73 -48 -134 -48 -78 0 -141 44 -173 122 -71 168 131 326 285 224z"/>
<path d="M2147 3152 c-10 -10 -17 -35 -17 -55 0 -68 -8 -67 470 -67 l427 0 21
23 c27 29 28 71 2 97 -19 19 -33 20 -453 20 -408 0 -435 -1 -450 -18z"/>
<path d="M1412 2900 c-21 -20 -22 -30 -22 -163 0 -168 7 -187 70 -187 63 0 70
19 70 187 0 133 -1 143 -22 163 -12 11 -34 20 -48 20 -14 0 -36 -9 -48 -20z"/>
</g>
</svg>
